<svg xmlns="http://www.w3.org/2000/svg" width="38" height="38" viewBox="0 0 38 38">
  <path id="svgLinkedin" d="M33.663,31.953V24.536c0-3.974-2.122-5.823-4.95-5.823a4.268,4.268,0,0,0-3.875,2.137V19.016h-4.3c.057,1.214,0,12.937,0,12.937h4.3V24.728a2.932,2.932,0,0,1,.142-1.048,2.352,2.352,0,0,1,2.205-1.573c1.557,0,2.179,1.186,2.179,2.925v6.922h4.3Zm-17.656-14.7a2.242,2.242,0,1,0,.028-4.471,2.241,2.241,0,1,0-.056,4.471ZM23,42A19,19,0,1,1,42,23,19,19,0,0,1,23,42ZM18.158,31.953V19.016h-4.3V31.953Z" transform="translate(-4 -4)" fill="#0f4c81" fill-rule="evenodd"/>
</svg>
