<svg xmlns="http://www.w3.org/2000/svg" width="38" height="38" viewBox="0 0 38 38">
  <path id="svgTwitter" d="M19,0A19,19,0,1,1,0,19,19.009,19.009,0,0,1,19,0ZM15.653,29.105a12.917,12.917,0,0,0,13-13c0-.2,0-.4-.009-.588a9.363,9.363,0,0,0,2.284-2.37,9.276,9.276,0,0,1-2.626.72,4.568,4.568,0,0,0,2.01-2.531,9.257,9.257,0,0,1-2.9,1.109,4.573,4.573,0,0,0-7.905,3.128,4.19,4.19,0,0,0,.123,1.043,12.966,12.966,0,0,1-9.422-4.777,4.568,4.568,0,0,0,1.422,6.095,4.49,4.49,0,0,1-2.066-.569v.057A4.576,4.576,0,0,0,13.236,21.9a4.559,4.559,0,0,1-1.2.161,4.359,4.359,0,0,1-.863-.085,4.564,4.564,0,0,0,4.265,3.175,9.188,9.188,0,0,1-5.678,1.953,8.318,8.318,0,0,1-1.09-.066,12.735,12.735,0,0,0,6.986,2.066Z" fill="#0f4c81" fill-rule="evenodd"/>
</svg>
