<svg id="image2" xmlns="http://www.w3.org/2000/svg" width="388" height="302" viewBox="0 0 388 302">
  <rect id="filter_0F4C81HaLi10_" data-name="filter#0F4C81HaLi10%" width="388" height="302" fill="#0f4c81" opacity="0.1" style="mix-blend-mode: hard-light;isolation: isolate"/>
  <g id="svgDesignSprintdsk" transform="translate(14.496 39.864)" style="mix-blend-mode: darken;isolation: isolate">
    <path id="Tracé_376" data-name="Tracé 376" d="M0,0,189.445.123l.1,152.494L.1,152.494Z" transform="matrix(0.958, 0.288, -0.288, 0.958, 110.722, 0)" fill="#cee0ee"/>
    <ellipse id="Ellipse_150" data-name="Ellipse 150" cx="86.878" cy="9.22" rx="86.878" ry="9.22" transform="translate(0 203.833)" fill="#65617d"/>
    <rect id="Rectangle_238" data-name="Rectangle 238" width="21.089" height="30.734" transform="translate(73.867 24.313)" fill="#2f2e41"/>
    <path id="Tracé_333" data-name="Tracé 333" d="M301.089,245.878s.793,15.174-6.223,15.8c-4.909.435,9.573,13.881,9.573,13.881l12.445-17.232s-9.329.955-3.351-9.573Z" transform="translate(-223.147 -207.282)" fill="#ffb8b8"/>
    <path id="Tracé_334" data-name="Tracé 334" d="M316.883,258.325l-3.933,5.447-8.514,11.783s-7.11-6.6-9.677-10.7c-.965-1.543-1.291-2.73-.355-3.082a.021.021,0,0,1,.014,0,1.52,1.52,0,0,1,.418-.092l.025,0a4.454,4.454,0,0,0,1.2-.269c5.73-2.142,5.028-15.525,5.028-15.525l12.447,2.872c-3.989,7.025-1.163,8.94,1.16,9.432a7.752,7.752,0,0,0,1.55.163C316.635,258.35,316.883,258.325,316.883,258.325Z" transform="translate(-223.144 -207.282)" opacity="0.1"/>
    <path id="Tracé_335" data-name="Tracé 335" d="M322.139,187.267c-2.279,6.746-5.773,12.893-12.893,12.893s-12.492-5.784-12.893-12.893c-.513-9.084,5.608-12.931,12.893-12.893C317.852,174.418,324.843,179.26,322.139,187.267Z" transform="translate(-224.741 -161.238)" fill="#2f2e41"/>
    <path id="Tracé_336" data-name="Tracé 336" d="M283.216,519.9l3.351,23.455s-2.872,14.36-1.436,24.412l1.436,10.531h6.7l1.915-11.009S297.1,555.8,297.1,550.535c0,0,5.265-23.933,1.915-28.72Z" transform="translate(-216.284 -383.715)" fill="#ffb8b8"/>
    <path id="Tracé_337" data-name="Tracé 337" d="M367.174,515.851l-3.351,24.891s2.872,14.36,1.436,24.412l-1.436,10.531h-6.7l-1.915-11.009s-1.915-11.488-1.915-16.753c0,0-5.265-25.369-1.915-30.156Z" transform="translate(-259.551 -381.101)" fill="#ffb8b8"/>
    <path id="Tracé_338" data-name="Tracé 338" d="M368.517,679.593s3.829-1.436,4.308.479,1.436,11.967,1.436,11.967,2.872,4.308,4.787,4.787,6.223,6.7.957,7.18-10.531-1.436-10.531-2.393-1.915-1.436-2.872-1.436-4.308-1.436-3.829-2.872,1.915-18.189,1.915-18.189Z" transform="translate(-267.594 -486.446)" fill="#2f2e41"/>
    <path id="Tracé_339" data-name="Tracé 339" d="M276.612,679.593s-3.829-1.436-4.308.479-1.436,11.967-1.436,11.967-2.872,4.308-4.787,4.787-6.223,6.7-.957,7.18,10.531-1.436,10.531-2.393,1.915-1.436,2.872-1.436,4.308-1.436,3.829-2.872-1.915-18.189-1.915-18.189Z" transform="translate(-202.98 -486.446)" fill="#2f2e41"/>
    <circle id="Ellipse_151" data-name="Ellipse 151" cx="9.925" cy="9.925" r="9.925" transform="translate(75.198 24.258)" fill="#ffb8b8"/>
    <path id="Tracé_340" data-name="Tracé 340" d="M379.909,315.909s-20.1,8.617-22.017-.479A131.456,131.456,0,0,1,355.5,298.2a.012.012,0,0,0-.007,0c-.28-.17-10.184-6.248-8.234-14.652a12.667,12.667,0,0,1,2.5-4.968s.294-.192.794-.457a15.881,15.881,0,0,1,1.812-.826c3.379-1.287,9-2.014,10.315,6.546a196.594,196.594,0,0,1,1.915,25.851s5.745,3.351,13.4,0,15.319-1.436,15.8,2.872S379.909,315.909,379.909,315.909Z" transform="translate(-257.446 -227.015)" fill="#ffb8b8"/>
    <path id="Tracé_341" data-name="Tracé 341" d="M240.263,290.419l-.1,3.181-1.142,35.858-.191,5.957-16.751,18.67s-3.351,10.049-10.532,11.486,4.787-13.879,4.787-13.879l16.276-23.936.025-.8a90.99,90.99,0,0,0-1.667-20,23.978,23.978,0,0,1-.273-7.44c.667-5.34,5.06-7.656,7.656-8.567a13.12,13.12,0,0,1,1.457-.429.021.021,0,0,1,.014,0c.216-.053.362-.082.418-.092l.025,0Z" transform="translate(-168.559 -235.939)" fill="#ffb8b8"/>
    <path id="Tracé_342" data-name="Tracé 342" d="M312.385,317.325v1.915c-6.979,8.528-22.425,4.5-28.053,2.66-1.323-.433-2.1-.745-2.1-.745a4.953,4.953,0,0,0,.479-1.915v-4.3c0-1.436.475-.479.954-.957s-1.433-3.351-1.433-3.351c-4.787-2.872-1.915-11.01-1.915-11.01l3.347-7.181V283.39a13.109,13.109,0,0,1,1.457-.429.021.021,0,0,1,.014,0,1.52,1.52,0,0,1,.419-.092l.025,0a4.454,4.454,0,0,0,1.195-.27,7.929,7.929,0,0,0,6.943,4.578c4.9.351,9.553-4.936,11.691-7.8a7.747,7.747,0,0,0,1.55.163,15.888,15.888,0,0,1,1.812-.826l-2.128,8.94c-1.883,4.706,5.021,11.72,5.259,11.964l.007,0v5.266l-.479,5.745-.479,1.436.957,1.436-.479,1.436.479.957C312.385,316.846,312.385,316.371,312.385,317.325Z" transform="translate(-213.86 -228.426)" fill="#d0cde1"/>
    <path id="Tracé_343" data-name="Tracé 343" d="M269.71,393.238l-1.436-.479s-17.232,43.08-5.744,44.995,20.1,5.265,22.019,1.915.957-15.317.957-15.317l1.915-.479s-3.351,17.711,3.351,16.275,25.369-3.829,25.369-5.744-17.232-43.266-17.232-43.266S291.728,395.632,269.71,393.238Z" transform="translate(-200.385 -300.862)" fill="#2f2e41"/>
    <circle id="Ellipse_152" data-name="Ellipse 152" cx="5.089" cy="5.089" r="5.089" transform="translate(79.415 5.671)" fill="#2f2e41"/>
    <path id="Tracé_344" data-name="Tracé 344" d="M313.691,150.758a5.09,5.09,0,0,1,4.58-5.064c-.167-.017-.337-.026-.509-.026a5.089,5.089,0,0,0,0,10.179c.172,0,.342-.009.509-.026A5.09,5.09,0,0,1,313.691,150.758Z" transform="translate(-235.294 -142.713)" fill="#2f2e41"/>
    <path id="Tracé_345" data-name="Tracé 345" d="M299.184,196.007s-.106-.592-4.263.967-6.648,13.061-4.57,19.815a6.189,6.189,0,0,1-.956,6.057,10.007,10.007,0,0,0,3.548,15.541q.257.112.525.222l2.6,1.559a11.88,11.88,0,0,1-1.654-9.931,28.577,28.577,0,0,0,.516-14.629c-.19-.816-.406-1.658-.651-2.516-2.078-7.274-1.067-6.434,6.206-13.707a46.235,46.235,0,0,0,7.793,4.676c3.637,1.559,6.754,3.117,4.156,8.313S303.6,222.244,307.756,229s4.676,4.156,4.156,6.754h0l-.52,2.6,3.117-3.117-2.078,4.156s6.754,0,8.832-5.2l1.039,1.039s4.156-7.274-3.637-14.028c0,0-2.6-1.559,1.039-6.754s.844-16.365-3.832-18.444S299.184,196.007,299.184,196.007Z" transform="translate(-218.778 -174.605)" fill="#2f2e41"/>
    <path id="Tracé_346" data-name="Tracé 346" d="M463.935,387.346l13.977-4.379a51.226,51.226,0,0,0-5.22-16.664l-13.977,4.378A31.422,31.422,0,0,1,463.935,387.346Z" transform="translate(-329.538 -284.896)" fill="#0f4c81"/>
    <rect id="Rectangle_239" data-name="Rectangle 239" width="196.45" height="80.14" transform="translate(162.118 1.183)" fill="#65617d"/>
    <path id="Tracé_347" data-name="Tracé 347" d="M603.1,193.02H588.453a51.229,51.229,0,0,1,0-17.463H603.1A31.422,31.422,0,0,0,603.1,193.02Z" transform="translate(-412.779 -162.002)" fill="#c37098"/>
    <path id="Tracé_348" data-name="Tracé 348" d="M666.879,214h14.646a51.226,51.226,0,0,0,0-17.463H666.879A31.422,31.422,0,0,1,666.879,214Z" transform="translate(-463.873 -175.541)" fill="#0f4c81"/>
    <path id="Tracé_349" data-name="Tracé 349" d="M758.38,170.366a131.482,131.482,0,0,1,2.034,36.832q-.416,4.809-1.19,9.577c-.235,1.445-.5,2.883-.778,4.321-.158.824-.488,1.85.03,2.625,1.009,1.511,4.467,1.116,5.991,1.166,3.17.1,6.345.12,9.516.175l9.541.167,4.594.08a34.3,34.3,0,0,0,4.832.07c2.044-.263,1.546-2.4,1.515-3.994q-.092-4.715-.251-9.429-.632-18.679-2.328-37.3a29.561,29.561,0,0,0-.481-5.01c-.172-.619-.344-.8-1.016-.909a30.612,30.612,0,0,0-4.934.024l-5.211.036-21.191.147a.532.532,0,0,0,0,1.064l17.369-.121,7.643-.053,4.169-.029c.857-.006,1.658-.265,2.195.677a9.238,9.238,0,0,1,.265,2.782q1.557,16.7,2.259,33.457.175,4.188.3,8.379.051,1.746.092,3.492.025,1.048.046,2.1a9.508,9.508,0,0,1,.051,2.794c-.558,1.411-3.045.8-4.26.783l-4.24-.074-8.48-.148-8.48-.148c-1.4-.024-2.806-.035-4.207-.095-.465-.02-.93-.042-1.395-.075-1.382-.1-2.87.228-3.035-1.682-.1-1.179.543-2.8.745-3.984q.341-2,.62-4.005.521-3.751.831-7.527a132.593,132.593,0,0,0-2.129-36.442c-.133-.671-1.158-.387-1.026.283Z" transform="translate(-522.8 -157.528)" fill="#fafafa"/>
    <path id="Tracé_350" data-name="Tracé 350" d="M955.38,170.366a131.485,131.485,0,0,1,2.034,36.832q-.417,4.809-1.19,9.577c-.235,1.445-.5,2.883-.778,4.321-.158.824-.488,1.85.03,2.625,1.009,1.511,4.467,1.116,5.991,1.166,3.17.1,6.345.12,9.516.175l9.541.167,4.594.08a34.293,34.293,0,0,0,4.832.07c2.044-.263,1.546-2.4,1.515-3.994q-.092-4.715-.251-9.429-.632-18.679-2.328-37.3a29.573,29.573,0,0,0-.481-5.01c-.172-.619-.344-.8-1.016-.909a30.613,30.613,0,0,0-4.934.024l-5.211.036-21.191.147a.532.532,0,0,0,0,1.064l17.37-.121,7.643-.053,4.169-.029c.857-.006,1.657-.265,2.195.677a9.24,9.24,0,0,1,.266,2.782q1.557,16.7,2.258,33.457.175,4.188.3,8.379.051,1.746.092,3.492.025,1.048.046,2.1a9.508,9.508,0,0,1,.052,2.794c-.558,1.411-3.045.8-4.26.783l-4.24-.074-8.48-.148-8.48-.148c-1.4-.024-2.806-.035-4.207-.095-.465-.02-.93-.042-1.395-.075-1.382-.1-2.87.228-3.035-1.682-.1-1.179.543-2.8.745-3.984q.341-2,.62-4.005.521-3.751.83-7.527a132.593,132.593,0,0,0-2.129-36.442c-.133-.671-1.158-.387-1.026.283Z" transform="translate(-649.926 -157.528)" fill="#fafafa"/>
    <path id="Tracé_351" data-name="Tracé 351" d="M771.573,179.319h7.036a.532.532,0,0,0,0-1.064h-7.036a.532.532,0,0,0,0,1.064Z" transform="translate(-531.105 -163.744)" fill="#fafafa"/>
    <path id="Tracé_352" data-name="Tracé 352" d="M771.573,185.63l6.632-.251c.682-.026.686-1.09,0-1.064l-6.632.251C770.89,184.592,770.887,185.656,771.573,185.63Z" transform="translate(-531.106 -167.654)" fill="#fafafa"/>
    <path id="Tracé_353" data-name="Tracé 353" d="M771.573,191.792h6.433a.532.532,0,0,0,0-1.064h-6.433a.532.532,0,0,0,0,1.064Z" transform="translate(-531.105 -171.794)" fill="#fafafa"/>
    <path id="Tracé_354" data-name="Tracé 354" d="M827.135,179.432c-1.444-.753-2.754.486-2.958,1.9a3.17,3.17,0,0,0,.32,2.226,2.788,2.788,0,0,0,2.036.9,2.989,2.989,0,0,0,3.172-2.087,2.606,2.606,0,0,0-1.622-3.089c-.648-.225-.927.8-.283,1.026a1.493,1.493,0,0,1,.91,1.544,1.708,1.708,0,0,1-1.422,1.491c-.878.2-1.907-.015-2.077-1.005-.127-.741.275-2.564,1.386-1.985C827.2,180.667,827.743,179.749,827.135,179.432Z" transform="translate(-565.346 -164.356)" fill="#fafafa"/>
    <path id="Tracé_355" data-name="Tracé 355" d="M968.573,179.319h7.036a.532.532,0,0,0,0-1.064h-7.036a.532.532,0,0,0,0,1.064Z" transform="translate(-658.228 -163.744)" fill="#fafafa"/>
    <path id="Tracé_356" data-name="Tracé 356" d="M968.573,185.63l6.632-.251c.682-.026.686-1.09,0-1.064l-6.632.251C967.89,184.592,967.887,185.656,968.573,185.63Z" transform="translate(-658.228 -167.654)" fill="#fafafa"/>
    <path id="Tracé_357" data-name="Tracé 357" d="M968.573,191.792h6.433a.532.532,0,0,0,0-1.064h-6.433a.532.532,0,0,0,0,1.064Z" transform="translate(-658.228 -171.794)" fill="#fafafa"/>
    <path id="Tracé_358" data-name="Tracé 358" d="M1024.135,179.432c-1.444-.753-2.754.486-2.958,1.9a3.17,3.17,0,0,0,.32,2.226,2.787,2.787,0,0,0,2.036.9,2.989,2.989,0,0,0,3.172-2.087,2.606,2.606,0,0,0-1.622-3.089c-.648-.225-.927.8-.283,1.026a1.492,1.492,0,0,1,.91,1.544,1.707,1.707,0,0,1-1.422,1.491c-.878.2-1.907-.015-2.077-1.005-.127-.741.276-2.564,1.386-1.985C1024.2,180.667,1024.743,179.749,1024.135,179.432Z" transform="translate(-692.472 -164.356)" fill="#fafafa"/>
    <path id="Tracé_359" data-name="Tracé 359" d="M775.541,206.939q11.609.122,23.194-.717l-.513-.673c-1.264,3.2-1.229,6.58-1.062,9.969a12.607,12.607,0,0,1,.136,2.835c-.217,1.058-1.166.8-2.11.835q-3.119.1-6.24.145-2.947.042-5.9.033-1.387,0-2.774-.02c-1.086-.012-2.32.3-2.6-.955a13.47,13.47,0,0,1,0-2.694l0-3.031,0-6.061a.532.532,0,0,0-1.064,0l0,7.408,0,3.367a5.971,5.971,0,0,0,.11,2.112c.574,1.461,3.057.913,4.247.924q3.641.034,7.282-.011t7.281-.165c1.045-.035,2.492.2,2.809-1.086a11.233,11.233,0,0,0-.084-3c-.054-1.052-.112-2.105-.126-3.159a18.5,18.5,0,0,1,1.117-7.159.534.534,0,0,0-.513-.673q-11.579.839-23.195.717a.532.532,0,0,0,0,1.064Z" transform="translate(-533.664 -181.107)" fill="#fafafa"/>
    <path id="Tracé_360" data-name="Tracé 360" d="M782.034,209.882a78.047,78.047,0,0,1,9.668,4.175c2.8,1.449,6.474,3.032,8.4,5.621.4.543,1.328.013.919-.537-1.97-2.644-5.362-4.2-8.212-5.7a79.928,79.928,0,0,0-10.5-4.582C781.671,208.626,781.393,209.654,782.034,209.882Z" transform="translate(-537.952 -183.472)" fill="#fafafa"/>
    <path id="Tracé_361" data-name="Tracé 361" d="M804.244,206.38c-3.515,1.5-6.494,4.4-9.635,6.546q-5.1,3.484-10.505,6.485c-.6.334-.062,1.253.537.919q5.393-3.011,10.505-6.485c3.141-2.146,6.121-5.043,9.635-6.546.628-.268.086-1.185-.537-.919Z" transform="translate(-539.353 -181.864)" fill="#fafafa"/>
    <path id="Tracé_362" data-name="Tracé 362" d="M972.541,206.939q11.609.122,23.194-.717l-.513-.673c-1.264,3.2-1.23,6.58-1.062,9.969a12.611,12.611,0,0,1,.136,2.835c-.217,1.058-1.166.8-2.11.835q-3.119.1-6.24.145-2.947.042-5.9.033-1.387,0-2.774-.02c-1.086-.012-2.32.3-2.6-.955a13.47,13.47,0,0,1,0-2.694l0-3.031,0-6.061a.532.532,0,0,0-1.064,0l-.005,7.408,0,3.367a5.971,5.971,0,0,0,.11,2.112c.574,1.461,3.057.913,4.247.924q3.641.034,7.282-.011t7.281-.165c1.045-.035,2.492.2,2.809-1.086a11.249,11.249,0,0,0-.084-3c-.054-1.052-.112-2.105-.126-3.159a18.5,18.5,0,0,1,1.117-7.159.534.534,0,0,0-.513-.673q-11.579.839-23.194.717a.532.532,0,0,0,0,1.064Z" transform="translate(-660.789 -181.107)" fill="#fafafa"/>
    <path id="Tracé_363" data-name="Tracé 363" d="M979.034,209.882a78.063,78.063,0,0,1,9.668,4.175c2.8,1.449,6.474,3.032,8.4,5.621.4.543,1.328.013.919-.537-1.97-2.644-5.362-4.2-8.211-5.7a79.945,79.945,0,0,0-10.5-4.582C978.671,208.626,978.393,209.654,979.034,209.882Z" transform="translate(-665.077 -183.472)" fill="#fafafa"/>
    <path id="Tracé_364" data-name="Tracé 364" d="M1001.244,206.38c-3.515,1.5-6.494,4.4-9.635,6.546q-5.1,3.484-10.505,6.485c-.6.334-.062,1.253.537.919q5.393-3.011,10.505-6.485c3.141-2.146,6.121-5.043,9.635-6.546.628-.268.086-1.185-.537-.919Z" transform="translate(-666.479 -181.864)" fill="#fafafa"/>
    <path id="Tracé_365" data-name="Tracé 365" d="M972.541,266.939q11.609.122,23.194-.717l-.513-.673c-1.264,3.2-1.23,6.58-1.062,9.969a12.61,12.61,0,0,1,.136,2.835c-.217,1.058-1.166.8-2.11.835q-3.119.1-6.24.145-2.947.042-5.9.033-1.387,0-2.774-.02c-1.086-.012-2.32.3-2.6-.955a13.47,13.47,0,0,1,0-2.694l0-3.031,0-6.061a.532.532,0,0,0-1.064,0l-.005,7.408,0,3.367a5.971,5.971,0,0,0,.11,2.112c.574,1.461,3.057.913,4.247.924q3.641.034,7.282-.011t7.281-.165c1.045-.035,2.492.2,2.809-1.086a11.248,11.248,0,0,0-.084-3c-.054-1.052-.112-2.105-.126-3.159a18.5,18.5,0,0,1,1.117-7.159.534.534,0,0,0-.513-.673q-11.579.839-23.194.717a.532.532,0,0,0,0,1.064Z" transform="translate(-660.789 -219.715)" fill="#fafafa"/>
    <path id="Tracé_366" data-name="Tracé 366" d="M979.034,269.882a78.063,78.063,0,0,1,9.668,4.175c2.8,1.449,6.474,3.032,8.4,5.621.4.543,1.328.013.919-.537-1.97-2.644-5.362-4.2-8.211-5.7a79.942,79.942,0,0,0-10.5-4.582C978.671,268.626,978.393,269.654,979.034,269.882Z" transform="translate(-665.077 -222.079)" fill="#fafafa"/>
    <path id="Tracé_367" data-name="Tracé 367" d="M1001.244,266.38c-3.515,1.5-6.494,4.4-9.635,6.546q-5.1,3.484-10.505,6.485c-.6.334-.062,1.253.537.919q5.393-3.011,10.505-6.485c3.141-2.146,6.121-5.043,9.635-6.546C1002.409,267.03,1001.867,266.113,1001.244,266.38Z" transform="translate(-666.479 -220.472)" fill="#fafafa"/>
    <path id="Tracé_368" data-name="Tracé 368" d="M781.212,265.826q10.757.164,21.512-.086a.532.532,0,0,0,0-1.064q-10.755.249-21.512.086a.532.532,0,0,0,0,1.064Z" transform="translate(-537.323 -219.412)" fill="#fafafa"/>
    <path id="Tracé_369" data-name="Tracé 369" d="M782.913,279.41q11.058.176,22.115-.095a.532.532,0,0,0,0-1.064q-11.056.271-22.115.095A.532.532,0,0,0,782.913,279.41Z" transform="translate(-538.421 -228.162)" fill="#fafafa"/>
    <path id="Tracé_370" data-name="Tracé 370" d="M780.639,292.5l20.909-.971c.682-.032.686-1.1,0-1.064l-20.909.971C779.958,291.469,779.954,292.533,780.639,292.5Z" transform="translate(-536.955 -236.034)" fill="#fafafa"/>
    <path id="Tracé_371" data-name="Tracé 371" d="M872.486,251.886h19.9a.532.532,0,0,0,0-1.064h-19.9a.532.532,0,0,0,0,1.064Z" transform="translate(-596.226 -210.578)" fill="#fafafa"/>
    <path id="Tracé_372" data-name="Tracé 372" d="M924.249,235.039l3.109,2.838a9.007,9.007,0,0,1,1.555,1.419c.457.877-.034.677-.817.981a17.5,17.5,0,0,0-5.235,3.251c-.515.454.24,1.2.752.752a16.253,16.253,0,0,1,4.766-2.977c.627-.248,1.817-.393,2.115-1.141.365-.915-.8-1.589-1.347-2.092L925,234.287C924.5,233.826,923.742,234.576,924.249,235.039Z" transform="translate(-628.946 -199.728)" fill="#fafafa"/>
    <path id="Tracé_373" data-name="Tracé 373" d="M790.879,322h14.646a51.226,51.226,0,0,0,0-17.463H790.879A31.421,31.421,0,0,1,790.879,322Z" transform="translate(-543.894 -245.091)" fill="#c37098"/>
    <path id="Tracé_374" data-name="Tracé 374" d="M618.879,285h14.646a51.226,51.226,0,0,0,0-17.463H618.879A31.424,31.424,0,0,1,618.879,285Z" transform="translate(-432.898 -221.245)" fill="#0f4c81"/>
    <path id="Tracé_375" data-name="Tracé 375" d="M879.879,177h14.646a51.226,51.226,0,0,0,0-17.463H879.879A31.424,31.424,0,0,1,879.879,177Z" transform="translate(-601.329 -151.661)" fill="#0f4c81"/>
  </g>
</svg>
