<svg xmlns="http://www.w3.org/2000/svg" width="388" height="302" viewBox="0 0 388 302">
  <g id="subtitle3" transform="translate(0 -1366)">
    <rect id="filter_0F4C81HaLi10_" data-name="filter#0F4C81HaLi10%" width="388" height="302" transform="translate(0 1366)" fill="#0f4c81" opacity="0.1" style="mix-blend-mode: hard-light;isolation: isolate"/>
    <g id="svgDesignSystemdsk" transform="translate(63.314 1380.496)">
      <rect id="Rectangle_242" data-name="Rectangle 242" width="0.722" height="47.142" transform="translate(181.632 33.701) rotate(-46.407)" fill="#3f3d56"/>
      <path id="Tracé_377" data-name="Tracé 377" d="M493.488,143.982l-.721.044.218,3.551-3.558-.043-.008.722,4.334.051Z" transform="translate(-276.921 -81.584)" fill="#3f3d56"/>
      <path id="Tracé_378" data-name="Tracé 378" d="M422.078,76.258l-.008.722-3.558-.043.218,3.551-.721.044-.263-4.326Z" transform="translate(-236.545 -43.307)" fill="#3f3d56"/>
      <circle id="Ellipse_153" data-name="Ellipse 153" cx="3.969" cy="3.969" r="3.969" transform="translate(194.947 45.724)" fill="#3f3d56"/>
      <rect id="Rectangle_243" data-name="Rectangle 243" width="47.142" height="0.722" transform="translate(45.378 65.684) rotate(-43.593)" fill="#3f3d56"/>
      <path id="Tracé_379" data-name="Tracé 379" d="M103.815,148.307l4.334-.051-.008-.722-3.558.043.218-3.551-.721-.044Z" transform="translate(-58.996 -81.584)" fill="#3f3d56"/>
      <path id="Tracé_380" data-name="Tracé 380" d="M179.823,76.206l-.264,4.326-.721-.044.217-3.551-3.558.043-.008-.722Z" transform="translate(-99.37 -43.307)" fill="#3f3d56"/>
      <circle id="Ellipse_154" data-name="Ellipse 154" cx="3.969" cy="3.969" r="3.969" transform="translate(58.769 45.724)" fill="#3f3d56"/>
      <path id="Tracé_381" data-name="Tracé 381" d="M586.253,217.26H526.361a3.251,3.251,0,0,1-3.247-3.247V138.247A3.251,3.251,0,0,1,526.361,135h59.891a3.251,3.251,0,0,1,3.247,3.247v75.766A3.251,3.251,0,0,1,586.253,217.26Zm-59.891-81.539a2.528,2.528,0,0,0-2.525,2.526v75.766a2.528,2.528,0,0,0,2.526,2.526h59.891a2.528,2.528,0,0,0,2.526-2.526V138.247a2.528,2.528,0,0,0-2.526-2.526Z" transform="translate(-425.843 -135)" fill="#3f3d56"/>
      <path id="Tracé_382" data-name="Tracé 382" d="M568.969,194.606H555.786a1.625,1.625,0,0,1-1.624-1.624V177.425a1.625,1.625,0,0,1,1.624-1.624h13.183a1.625,1.625,0,0,1,1.624,1.624v15.557A1.625,1.625,0,0,1,568.969,194.606Z" transform="translate(-443.544 -158.187)" fill="#0f4c81"/>
      <path id="Tracé_383" data-name="Tracé 383" d="M628.3,211.32H615.121A1.625,1.625,0,0,1,613.5,209.7V194.139a1.625,1.625,0,0,1,1.624-1.624H628.3a1.625,1.625,0,0,1,1.624,1.624V209.7A1.625,1.625,0,0,1,628.3,211.32Z" transform="translate(-477.137 -167.685)" fill="#65617d"/>
      <path id="Tracé_384" data-name="Tracé 384" d="M580.669,262.3H567.486a1.625,1.625,0,0,1-1.624-1.624V245.118a1.625,1.625,0,0,1,1.624-1.624h13.183a1.625,1.625,0,0,1,1.624,1.624v15.557A1.625,1.625,0,0,1,580.669,262.3Z" transform="translate(-450.168 -196.465)" fill="#c37098"/>
      <path id="Tracé_385" data-name="Tracé 385" d="M810.167,397.717H750.276a3.251,3.251,0,0,1-3.247-3.247V318.7a3.251,3.251,0,0,1,3.247-3.247h59.891a3.251,3.251,0,0,1,3.247,3.247V394.47A3.251,3.251,0,0,1,810.167,397.717Zm-59.891-81.539a2.528,2.528,0,0,0-2.525,2.526V394.47A2.528,2.528,0,0,0,750.276,397h59.891a2.528,2.528,0,0,0,2.526-2.526V318.7a2.528,2.528,0,0,0-2.526-2.525Z" transform="translate(-552.486 -237.129)" fill="#3f3d56"/>
      <path id="Tracé_386" data-name="Tracé 386" d="M818.762,350.518H798.2a1.443,1.443,0,0,1,0-2.886h20.565a1.443,1.443,0,0,1,0,2.886Z" transform="translate(-580.744 -255.485)" fill="#0f4c81"/>
      <path id="Tracé_387" data-name="Tracé 387" d="M815.566,382.276H774.8a1.443,1.443,0,0,1,0-2.886h40.769a1.443,1.443,0,0,1,0,2.886Z" transform="translate(-567.446 -273.48)" fill="#3f3d56"/>
      <path id="Tracé_388" data-name="Tracé 388" d="M815.566,399.826H774.8a1.443,1.443,0,0,1,0-2.886h40.769a1.443,1.443,0,1,1,0,2.886Z" transform="translate(-567.446 -283.424)" fill="#3f3d56"/>
      <path id="Tracé_389" data-name="Tracé 389" d="M815.566,417.376H774.8a1.443,1.443,0,0,1,0-2.886h40.769a1.443,1.443,0,1,1,0,2.886Z" transform="translate(-567.446 -293.369)" fill="#3f3d56"/>
      <path id="Tracé_390" data-name="Tracé 390" d="M815.566,434.926H774.8a1.443,1.443,0,0,1,0-2.886h40.769a1.443,1.443,0,1,1,0,2.886Z" transform="translate(-567.446 -303.313)" fill="#3f3d56"/>
      <path id="Tracé_391" data-name="Tracé 391" d="M815.566,452.476H774.8a1.443,1.443,0,0,1,0-2.886h40.769a1.443,1.443,0,0,1,0,2.886Z" transform="translate(-567.446 -313.258)" fill="#3f3d56"/>
      <path id="Tracé_392" data-name="Tracé 392" d="M815.566,470.026H774.8a1.443,1.443,0,0,1,0-2.886h40.769a1.443,1.443,0,1,1,0,2.886Z" transform="translate(-567.446 -323.202)" fill="#3f3d56"/>
      <path id="Tracé_393" data-name="Tracé 393" d="M362.338,397.717H302.447a3.251,3.251,0,0,1-3.247-3.247V318.7a3.251,3.251,0,0,1,3.247-3.247h59.891a3.251,3.251,0,0,1,3.247,3.247V394.47A3.251,3.251,0,0,1,362.338,397.717Zm-59.891-81.539a2.528,2.528,0,0,0-2.525,2.526V394.47A2.528,2.528,0,0,0,302.447,397h59.891a2.528,2.528,0,0,0,2.526-2.526V318.7a2.528,2.528,0,0,0-2.526-2.526Z" transform="translate(-299.2 -237.129)" fill="#3f3d56"/>
      <path id="Tracé_394" data-name="Tracé 394" d="M397.8,353.093h-18.04a1.443,1.443,0,1,1,0-2.886H397.8a1.443,1.443,0,1,1,0,2.886Z" transform="translate(-344.163 -256.944)" fill="#3f3d56"/>
      <path id="Tracé_395" data-name="Tracé 395" d="M397.8,370.643h-18.04a1.443,1.443,0,1,1,0-2.886H397.8a1.443,1.443,0,1,1,0,2.886Z" transform="translate(-344.163 -266.889)" fill="#3f3d56"/>
      <path id="Tracé_396" data-name="Tracé 396" d="M340.731,359.683H327.548a1.625,1.625,0,0,1-1.624-1.624V342.5a1.625,1.625,0,0,1,1.624-1.624h13.183a1.625,1.625,0,0,1,1.624,1.624v15.557A1.625,1.625,0,0,1,340.731,359.683Z" transform="translate(-314.387 -251.637)" fill="#0f4c81"/>
      <path id="Tracé_397" data-name="Tracé 397" d="M367.593,406.579H326.823a1.443,1.443,0,1,1,0-2.886h40.769a1.443,1.443,0,1,1,0,2.886Z" transform="translate(-314.078 -287.251)" fill="#3f3d56"/>
      <path id="Tracé_398" data-name="Tracé 398" d="M367.593,424.129H326.823a1.443,1.443,0,0,1,0-2.886h40.769a1.443,1.443,0,1,1,0,2.886Z" transform="translate(-314.078 -297.196)" fill="#3f3d56"/>
      <path id="Tracé_399" data-name="Tracé 399" d="M367.593,441.679H326.823a1.443,1.443,0,0,1,0-2.886h40.769a1.443,1.443,0,1,1,0,2.886Z" transform="translate(-314.078 -307.14)" fill="#3f3d56"/>
      <path id="Tracé_400" data-name="Tracé 400" d="M367.593,459.229H326.823a1.443,1.443,0,0,1,0-2.886h40.769a1.443,1.443,0,1,1,0,2.886Z" transform="translate(-314.078 -317.084)" fill="#3f3d56"/>
      <path id="Tracé_401" data-name="Tracé 401" d="M367.593,476.779H326.823a1.443,1.443,0,1,1,0-2.886h40.769a1.443,1.443,0,1,1,0,2.886Z" transform="translate(-314.078 -327.029)" fill="#3f3d56"/>
      <path id="Tracé_402" data-name="Tracé 402" d="M497.9,585.1V569.546a1.625,1.625,0,0,1,1.624-1.624H512.7a1.625,1.625,0,0,1,1.624,1.624V585.1a1.625,1.625,0,0,1-1.624,1.624H499.519A1.625,1.625,0,0,1,497.9,585.1Z" transform="translate(-411.689 -380.265)" fill="#c37098"/>
      <path id="Tracé_403" data-name="Tracé 403" d="M508.9,573.1V557.546a1.625,1.625,0,0,1,1.624-1.624H523.7a1.625,1.625,0,0,1,1.624,1.624V573.1a1.625,1.625,0,0,1-1.624,1.624H510.519A1.625,1.625,0,0,1,508.9,573.1Z" transform="translate(-417.917 -373.466)" fill="#0f4c81"/>
      <path id="Tracé_404" data-name="Tracé 404" d="M639.042,537.078a3.919,3.919,0,0,1-1.035-5.919l-4.086-29.869,8.512.418,1.336,29.135a3.94,3.94,0,0,1-4.727,6.237Z" transform="translate(-488.714 -342.467)" fill="#a0616a"/>
      <path id="Tracé_405" data-name="Tracé 405" d="M633.043,474.817a1.6,1.6,0,0,1-.65.46l-7.65,2.92a1.607,1.607,0,0,1-2.042-.848l-6.776-15.229a6.363,6.363,0,0,1-.311-4.5,6.189,6.189,0,0,1,4.711-4.223,5.9,5.9,0,0,1,2.543.036,6.165,6.165,0,0,1,4.431,3.852l6.025,15.926A1.611,1.611,0,0,1,633.043,474.817Z" transform="translate(-478.176 -315.297)" fill="#ccc"/>
      <path id="Tracé_406" data-name="Tracé 406" d="M255.314,591.06h-5.293L248.1,570.549l7.213.1Z" transform="translate(-140.48 -323.207)" fill="#a0616a"/>
      <path id="Tracé_407" data-name="Tracé 407" d="M235.33,614.557h10.207v6.427H228.9a6.427,6.427,0,0,1,6.427-6.427Z" transform="translate(-129.591 -348.216)" fill="#2f2e41"/>
      <path id="Tracé_408" data-name="Tracé 408" d="M311.526,591.187h-5.293l-2.518-20.415h7.811Z" transform="translate(-171.968 -323.334)" fill="#a0616a"/>
      <path id="Tracé_409" data-name="Tracé 409" d="M292.33,614.557h10.207v6.427H285.9a6.427,6.427,0,0,1,6.427-6.427Z" transform="translate(-161.861 -348.216)" fill="#2f2e41"/>
      <path id="Tracé_410" data-name="Tracé 410" d="M577.733,636.317l-8.313-.615a1.945,1.945,0,0,1-1.8-1.844l-1.854-38.306a1.511,1.511,0,0,0-2.99-.23l-7.733,37.735a1.945,1.945,0,0,1-2.058,1.546l-7.514-.6a1.942,1.942,0,0,1-1.778-2.129l6.971-69.712a1.943,1.943,0,0,1,2.346-1.705l26.51,5.763a1.947,1.947,0,0,1,1.53,1.935l-1.235,66.263a1.944,1.944,0,0,1-1.938,1.906C577.832,636.323,577.783,636.32,577.733,636.317Z" transform="translate(-437.565 -375.727)" fill="#2f2e41"/>
      <circle id="Ellipse_155" data-name="Ellipse 155" cx="10.603" cy="10.603" r="10.603" transform="translate(122.335 106.345)" fill="#a0616a"/>
      <path id="Tracé_411" data-name="Tracé 411" d="M563.447,497.507a9.481,9.481,0,0,1-3.149-7.281c0-15.24,13.191-49.288,13.6-50.351.04-.256.388-.366,2.214-1.6s4.462-1.424,7.831-.564a1.934,1.934,0,0,1,1.4,1.433l.627.906a1.508,1.508,0,0,0,.876,1.039c2.717,1.145,11.353,6.423,8.41,26.288-2.734,18.453-3.843,29.305-4.193,33.115a1.939,1.939,0,0,1-1.758,1.755c-1.332.119-3.619.278-6.342.278C576.66,502.524,568,501.673,563.447,497.507Z" transform="translate(-446.969 -306.077)" fill="#ccc"/>
      <path id="Tracé_412" data-name="Tracé 412" d="M537.721,520.962a3.919,3.919,0,0,1,2.439-5.492l13.251-27.08,6.836,5.09-15.125,24.937a3.94,3.94,0,0,1-7.4,2.545Z" transform="translate(-433.996 -335.165)" fill="#a0616a"/>
      <path id="Tracé_413" data-name="Tracé 413" d="M578.965,469.075a1.6,1.6,0,0,1-.8.019l-7.979-1.838a1.607,1.607,0,0,1-1.223-1.842l2.859-16.421a6.363,6.363,0,0,1,2.251-3.913,6.19,6.19,0,0,1,6.265-.882,5.9,5.9,0,0,1,2.091,1.447,6.165,6.165,0,0,1,1.533,5.667L580.1,467.894A1.611,1.611,0,0,1,578.965,469.075Z" transform="translate(-451.916 -309.884)" fill="#ccc"/>
      <path id="Tracé_414" data-name="Tracé 414" d="M585.886,396.974a4.569,4.569,0,0,1-1.226-4.052c.37-1.934.587-3.2.628-3.659h0c.141-1.575-1.451-2.85-3.026-3.052-.061-.008-.112-.013-.155-.017.04.039.083.08.121.115.3.281.672.631.583.992-.053.217-.252.372-.607.471a5.143,5.143,0,0,1-5.971-1.993,4.76,4.76,0,0,1-.909-1.985c-.577-2.83.96-5.242,2.351-6.767a8.185,8.185,0,0,1,5.351-2.915,4.7,4.7,0,0,1,4.64,2.838,3.523,3.523,0,0,1,2.746-1.548,6.33,6.33,0,0,1,3.522.98,11.746,11.746,0,0,1-4.159,21.871,4.489,4.489,0,0,1-.749.063,4.367,4.367,0,0,1-3.141-1.34Z" transform="translate(-455.434 -270.451)" fill="#2f2e41"/>
      <path id="Tracé_415" data-name="Tracé 415" d="M484.21,763.863h84.185a.432.432,0,0,0,0-.863H484.21a.432.432,0,0,0,0,.863Z" transform="translate(-403.542 -490.855)" fill="#3f3d56"/>
    </g>
  </g>
</svg>
